<svg width="133" height="38" viewBox="0 0 133 38" fill="none" xmlns="http://www.w3.org/2000/svg">
<path d="M48.264 27L54.432 17.664L54.456 18.072L48.792 9.48H52.584L56.376 15.36H56.88L60.648 9.48H64.296L58.56 18.144L58.512 17.736L64.824 27H61.056L56.64 20.424H56.136L51.912 27H48.264ZM72.2738 27.456C71.1378 27.456 70.1538 27.264 69.3218 26.88C68.5058 26.496 67.8178 25.984 67.2578 25.344C66.7138 24.704 66.3058 23.984 66.0338 23.184C65.7618 22.384 65.6258 21.568 65.6258 20.736V20.28C65.6258 19.4 65.7618 18.56 66.0338 17.76C66.3218 16.944 66.7458 16.224 67.3058 15.6C67.8658 14.96 68.5538 14.456 69.3698 14.088C70.2018 13.704 71.1618 13.512 72.2498 13.512C73.3858 13.512 74.4018 13.736 75.2978 14.184C76.1938 14.616 76.9058 15.224 77.4338 16.008C77.9778 16.792 78.2818 17.704 78.3458 18.744H75.1058C75.0258 18.072 74.7378 17.512 74.2418 17.064C73.7618 16.616 73.0978 16.392 72.2498 16.392C71.5138 16.392 70.8978 16.568 70.4018 16.92C69.9218 17.272 69.5618 17.76 69.3218 18.384C69.0818 18.992 68.9618 19.696 68.9618 20.496C68.9618 21.264 69.0738 21.96 69.2978 22.584C69.5378 23.208 69.8978 23.696 70.3778 24.048C70.8738 24.4 71.5058 24.576 72.2738 24.576C72.8498 24.576 73.3458 24.472 73.7618 24.264C74.1778 24.056 74.5058 23.768 74.7458 23.4C75.0018 23.032 75.1618 22.616 75.2258 22.152H78.4658C78.4018 23.208 78.0898 24.136 77.5298 24.936C76.9858 25.72 76.2578 26.336 75.3458 26.784C74.4498 27.232 73.4258 27.456 72.2738 27.456ZM81.1382 27V9.48H84.4742V19.704H83.8982C83.8982 18.392 84.0662 17.28 84.4022 16.368C84.7382 15.456 85.2342 14.76 85.8902 14.28C86.5622 13.8 87.4102 13.56 88.4342 13.56H88.5782C90.0662 13.56 91.1942 14.072 91.9622 15.096C92.7302 16.12 93.1142 17.608 93.1142 19.56V27H89.7782V19.248C89.7782 18.416 89.5382 17.76 89.0582 17.28C88.5942 16.8 87.9782 16.56 87.2102 16.56C86.3942 16.56 85.7302 16.832 85.2182 17.376C84.7222 17.904 84.4742 18.6 84.4742 19.464V27H81.1382ZM104.597 27V23.136H104.045V18.84C104.045 18.088 103.861 17.528 103.493 17.16C103.125 16.792 102.557 16.608 101.789 16.608C101.389 16.608 100.909 16.616 100.349 16.632C99.7887 16.648 99.2207 16.672 98.6447 16.704C98.0847 16.72 97.5807 16.744 97.1327 16.776V13.944C97.5007 13.912 97.9167 13.88 98.3807 13.848C98.8447 13.816 99.3167 13.8 99.7967 13.8C100.293 13.784 100.757 13.776 101.189 13.776C102.533 13.776 103.645 13.952 104.525 14.304C105.421 14.656 106.093 15.208 106.541 15.96C107.005 16.712 107.237 17.696 107.237 18.912V27H104.597ZM100.397 27.336C99.4527 27.336 98.6207 27.168 97.9007 26.832C97.1967 26.496 96.6447 26.016 96.2447 25.392C95.8607 24.768 95.6687 24.016 95.6687 23.136C95.6687 22.176 95.9007 21.392 96.3647 20.784C96.8447 20.176 97.5087 19.72 98.3567 19.416C99.2207 19.112 100.229 18.96 101.381 18.96H104.405V20.952H101.333C100.565 20.952 99.9727 21.144 99.5567 21.528C99.1567 21.896 98.9567 22.376 98.9567 22.968C98.9567 23.56 99.1567 24.04 99.5567 24.408C99.9727 24.776 100.565 24.96 101.333 24.96C101.797 24.96 102.221 24.88 102.605 24.72C103.005 24.544 103.333 24.256 103.589 23.856C103.861 23.44 104.013 22.88 104.045 22.176L104.861 23.112C104.781 24.024 104.557 24.792 104.189 25.416C103.837 26.04 103.341 26.52 102.701 26.856C102.077 27.176 101.309 27.336 100.397 27.336ZM111.434 27V13.968H114.77V27H111.434ZM109.61 16.464V13.968H114.77V16.464H109.61ZM112.658 12.408C112.002 12.408 111.514 12.24 111.194 11.904C110.89 11.552 110.738 11.112 110.738 10.584C110.738 10.056 110.89 9.624 111.194 9.288C111.514 8.952 112.002 8.784 112.658 8.784C113.314 8.784 113.794 8.952 114.098 9.288C114.402 9.624 114.554 10.056 114.554 10.584C114.554 11.112 114.402 11.552 114.098 11.904C113.794 12.24 113.314 12.408 112.658 12.408ZM118.615 27V13.968H121.255V19.56H121.015C121.015 18.232 121.191 17.128 121.543 16.248C121.895 15.352 122.415 14.68 123.103 14.232C123.807 13.784 124.679 13.56 125.719 13.56H125.863C127.415 13.56 128.591 14.064 129.391 15.072C130.191 16.064 130.591 17.552 130.591 19.536V27H127.255V19.248C127.255 18.448 127.023 17.8 126.559 17.304C126.111 16.808 125.487 16.56 124.687 16.56C123.871 16.56 123.207 16.816 122.695 17.328C122.199 17.824 121.951 18.496 121.951 19.344V27H118.615Z" fill="white"/>
<path d="M38 19C38 8.50659 29.4934 2.5255e-06 19 2.98418e-06C8.50659 3.44286e-06 -1.2892e-06 8.50659 -8.30516e-07 19C-3.71835e-07 29.4934 8.50659 38 19 38C29.4934 38 38 29.4934 38 19Z" fill="url(#paint0_radial_215_754)"/>
<path d="M38 19C38 8.50659 29.4934 2.5255e-06 19 2.98418e-06C8.50659 3.44286e-06 -1.2892e-06 8.50659 -8.30516e-07 19C-3.71835e-07 29.4934 8.50659 38 19 38C29.4934 38 38 29.4934 38 19Z" fill="url(#paint1_linear_215_754)"/>
<path d="M31.344 21.3144C28.7424 18.3513 29.0769 14.2884 30.8254 11.9876C31.3322 11.3287 33.3526 9.58194 36.1958 10.9199C34.4372 7.18308 31.4977 4.11355 27.8572 2.18939C29.2611 3.98854 29.2898 6.24718 27.0649 8.20682C24.5326 10.4384 20.5626 11.0061 14.0097 7.21518C11.2848 5.63902 8.3994 5.07309 5.73531 5.39407C2.95804 8.10208 1.00516 11.6514 0.293945 15.6332C4.54601 10.5229 10.9824 11.4605 13.7124 14.8358C15.9643 17.6215 15.8393 22.5375 11.6733 25.9685C9.23055 28.1292 5.70321 29.006 2.42082 28.288C3.73175 30.6227 5.52245 32.6533 7.65778 34.2446C11.3777 34.6838 15.3426 32.8205 17.9138 29.6209C21.8871 24.6796 26.3605 25.6881 28.6275 28.3843C29.9419 29.9486 30.2409 32.7631 28.4147 35.5015C31.2967 33.8527 33.7057 31.4707 35.3866 28.6107C36.0032 25.2033 32.7529 23.0477 31.3457 21.3144H31.344Z" fill="url(#paint2_linear_215_754)"/>
<defs>
<radialGradient id="paint0_radial_215_754" cx="0" cy="0" r="1" gradientUnits="userSpaceOnUse" gradientTransform="translate(22 24) rotate(50.3322) scale(26.6317 26.6317)">
<stop stop-color="#424242" stop-opacity="0"/>
<stop offset="0.703125" stop-color="#424242" stop-opacity="0.505208"/>
<stop offset="1" stop-color="#424242"/>
</radialGradient>
<linearGradient id="paint1_linear_215_754" x1="12" y1="-2.5" x2="61" y2="99.5" gradientUnits="userSpaceOnUse">
<stop stop-color="#FFFEFE" stop-opacity="0.98"/>
<stop offset="0.02" stop-color="#FFF2EC" stop-opacity="0.78"/>
<stop offset="0.03" stop-color="#FFE6DB" stop-opacity="0.6"/>
<stop offset="0.05" stop-color="#FFDDCD" stop-opacity="0.44"/>
<stop offset="0.07" stop-color="#FFD4C1" stop-opacity="0.3"/>
<stop offset="0.09" stop-color="#FFCEB8" stop-opacity="0.19"/>
<stop offset="0.11" stop-color="#FFC8B0" stop-opacity="0.11"/>
<stop offset="0.13" stop-color="#FFC5AB" stop-opacity="0.05"/>
<stop offset="0.16" stop-color="#FFC3A8" stop-opacity="0.01"/>
<stop offset="0.19" stop-color="#FFC2A7" stop-opacity="0"/>
</linearGradient>
<linearGradient id="paint2_linear_215_754" x1="9.5" y1="4" x2="29" y2="25.5" gradientUnits="userSpaceOnUse">
<stop stop-color="#FCB808"/>
<stop offset="1" stop-color="#F80C7D"/>
</linearGradient>
</defs>
</svg>
